<svg xmlns="http://www.w3.org/2000/svg" width="180" height="36" viewBox="0 0 180 36" fill="none"><path d="M49.1513 21.4403C47.9238 20.0779 47.3101 18.3743 47.3101 16.3296C47.3101 14.3004 47.9238 12.6007 49.1513 11.2324C50.3826 9.86413 51.9428 9.1761 53.8376 9.1761C55.7687 9.1761 57.2084 9.92421 58.1567 11.4185V5.17395C58.1567 4.31925 58.585 3.89481 59.4454 3.89481H60.9731C61.8163 3.89481 62.235 4.32119 62.235 5.17395V21.9074C62.235 22.7602 61.8144 23.1866 60.9731 23.1866H59.4454C58.585 23.1866 58.1567 22.7583 58.1567 21.9074V21.2659C57.2065 22.7408 55.7687 23.4812 53.8376 23.4812C51.9428 23.4812 50.3826 22.8009 49.1513 21.4403ZM57.2486 19.0778C57.8891 18.3472 58.2179 17.4304 58.2351 16.3296C58.2179 15.2249 57.8891 14.3082 57.2486 13.5814C56.608 12.8507 55.7782 12.4864 54.7592 12.4864C53.7401 12.4864 52.9256 12.8565 52.3118 13.595C51.6981 14.3334 51.3902 15.2443 51.3902 16.3315C51.3902 17.4324 51.6981 18.351 52.3118 19.0798C52.9275 19.8085 53.742 20.1728 54.7592 20.1728C55.7782 20.1709 56.608 19.8065 57.2486 19.0778Z" fill="white"/><path d="M65.7456 21.454C64.325 20.0992 63.6118 18.4112 63.6118 16.382C63.6118 14.3896 64.2982 12.6899 65.6653 11.2867C67.0343 9.88161 68.8258 9.17615 71.038 9.17615C73.0379 9.17615 74.7147 9.7692 76.0646 10.9514C77.4164 12.1356 78.1372 13.7849 78.2251 15.9013C78.2423 16.2754 78.1333 16.5545 77.8943 16.7425C77.6573 16.9285 77.3361 17.0235 76.9345 17.0235H67.5084C67.474 17.8782 67.8469 18.6243 68.627 19.2659C69.407 19.9054 70.4204 20.2271 71.667 20.2271C72.7052 20.2271 73.7033 19.9519 74.6707 19.3996C75.3897 18.9906 75.9862 19.0798 76.4604 19.667L76.7491 20.0411C77.3284 20.7524 77.2481 21.3842 76.512 21.9365C75.1086 22.9695 73.405 23.4831 71.4051 23.4831C69.0552 23.4812 67.1681 22.8048 65.7456 21.454ZM74.4088 14.7268C74.2329 13.8721 73.8352 13.2539 73.21 12.8702C72.5867 12.4883 71.8812 12.2965 71.0896 12.2965C70.2827 12.2965 69.5543 12.4922 68.9061 12.8837C68.256 13.2772 67.8258 13.8896 67.6155 14.7268H74.4088V14.7268Z" fill="white"/><path d="M82.2096 22.1459L78.2881 10.9631C78.1122 10.5193 78.1218 10.1588 78.313 9.88356C78.5061 9.60835 78.8388 9.46881 79.3149 9.46881H81.051C81.8062 9.46881 82.2784 9.83317 82.4716 10.5638L84.6053 17.6088L86.6339 10.9379C86.8443 10.2072 87.3184 9.84286 88.0546 9.84286H88.4484C89.1865 9.84286 89.6587 10.2072 89.869 10.9379L91.9225 17.6088L94.0295 10.5638C94.2226 9.83317 94.6968 9.46881 95.4501 9.46881H97.1881C97.6623 9.46881 97.995 9.60835 98.1862 9.88356C98.3793 10.1588 98.3965 10.5212 98.2397 10.9631L94.2914 22.1459C94.062 22.8397 93.5802 23.1866 92.8422 23.1866H91.7103C90.9722 23.1866 90.4904 22.83 90.2629 22.1187L88.2611 15.5253L86.2324 22.1187C86.0221 22.83 85.5403 23.1866 84.7851 23.1866H83.6532C82.9209 23.1866 82.4391 22.8397 82.2096 22.1459Z" fill="white"/><path d="M100.282 21.4404C99.0542 20.0779 98.4404 18.3743 98.4404 16.3296C98.4404 14.3005 99.0542 12.6008 100.282 11.2325C101.513 9.86417 103.064 9.17615 104.941 9.17615C106.889 9.17615 108.337 9.92425 109.287 11.4185V10.7518C109.287 9.89712 109.708 9.4688 110.549 9.4688H112.103C112.947 9.4688 113.365 9.89712 113.365 10.7518V21.9075C113.365 22.7602 112.945 23.1866 112.103 23.1866H110.549C109.706 23.1866 109.287 22.7583 109.287 21.9075V21.266C108.337 22.7409 106.891 23.4812 104.941 23.4812C103.064 23.4812 101.511 22.8009 100.282 21.4404ZM108.379 19.0779C109.019 18.3472 109.339 17.4305 109.339 16.3296C109.339 15.2249 109.019 14.3082 108.379 13.5814C107.738 12.8508 106.909 12.4864 105.89 12.4864C104.853 12.4864 104.033 12.8566 103.429 13.595C102.825 14.3334 102.521 15.2443 102.521 16.3316C102.521 17.4324 102.825 18.3511 103.429 19.0798C104.033 19.8085 104.855 20.1729 105.89 20.1729C106.907 20.1709 107.736 19.8066 108.379 19.0779Z" fill="white"/><path d="M116.902 21.4539C115.464 20.0992 114.744 18.4208 114.744 16.411C114.744 14.3644 115.459 12.6472 116.889 11.2595C118.321 9.87381 120.202 9.17804 122.537 9.17804C124.097 9.17804 125.529 9.55984 126.829 10.3254C127.548 10.7886 127.627 11.3952 127.064 12.1414L126.644 12.6744C126.204 13.2267 125.606 13.3333 124.852 12.9961C124.202 12.6744 123.51 12.5135 122.772 12.5135C121.633 12.5135 120.688 12.8701 119.942 13.5833C119.197 14.2946 118.824 15.2113 118.824 16.3315C118.824 17.4537 119.197 18.3685 119.942 19.0798C120.688 19.791 121.633 20.1476 122.772 20.1476C123.51 20.1476 124.202 19.9868 124.852 19.667C125.627 19.3104 126.221 19.417 126.644 19.9868L127.064 20.5217C127.328 20.8415 127.42 21.1845 127.342 21.5489C127.263 21.9132 127.011 22.2117 126.592 22.4423C125.382 23.1362 124.03 23.4831 122.539 23.4831C120.22 23.4812 118.342 22.8048 116.902 21.4539Z" fill="white"/><path d="M128.902 21.9074V5.17395C128.902 4.31925 129.324 3.89481 130.164 3.89481H131.691C132.552 3.89481 132.982 4.32119 132.982 5.17395V21.9074C132.982 22.7602 132.552 23.1866 131.691 23.1866H130.164C129.324 23.1866 128.902 22.7583 128.902 21.9074Z" fill="white"/><path d="M136.516 21.3997C135.078 20.014 134.357 18.322 134.357 16.3296C134.357 14.3373 135.078 12.6473 136.516 11.2577C137.955 9.87192 139.737 9.17615 141.86 9.17615C143.984 9.17615 145.766 9.87192 147.204 11.2577C148.643 12.6453 149.362 14.3373 149.362 16.3296C149.362 18.322 148.643 20.012 147.204 21.3997C145.766 22.7874 143.984 23.4812 141.86 23.4812C139.737 23.4812 137.955 22.7874 136.516 21.3997ZM144.441 19.0507C145.142 18.322 145.494 17.4227 145.494 16.3568C145.494 15.2734 145.142 14.3644 144.441 13.6338C143.737 12.905 142.879 12.5407 141.86 12.5407C140.823 12.5407 139.961 12.905 139.267 13.6338C138.573 14.3644 138.225 15.2714 138.225 16.3568C138.225 17.4247 138.577 18.3239 139.28 19.0507C139.982 19.7814 140.84 20.1457 141.86 20.1457C142.877 20.1457 143.737 19.7794 144.441 19.0507Z" fill="white"/><path d="M151.728 21.7602C150.93 20.6128 150.529 19.1476 150.529 17.3704V10.7518C150.529 9.89713 150.951 9.46881 151.795 9.46881H153.349C154.192 9.46881 154.611 9.89713 154.611 10.7518V17.0778C154.611 18.0565 154.794 18.8124 155.163 19.3434C155.532 19.8783 156.06 20.1458 156.743 20.1458C157.498 20.1458 158.16 19.8298 158.729 19.198C159.299 18.5662 159.584 17.6553 159.584 16.4614V10.7518C159.584 9.89713 160.007 9.46881 160.85 9.46881H162.375C163.236 9.46881 163.666 9.89713 163.666 10.7518V21.9075C163.666 22.7602 163.236 23.1866 162.375 23.1866H160.85C160.007 23.1866 159.584 22.7583 159.584 21.9075V21.0257C158.865 22.6614 157.487 23.4812 155.45 23.4812C153.768 23.4812 152.527 22.9075 151.728 21.7602Z" fill="white"/><path d="M166.913 21.4403C165.686 20.0779 165.072 18.3743 165.072 16.3296C165.072 14.3004 165.686 12.6007 166.913 11.2324C168.144 9.86413 169.705 9.1761 171.599 9.1761C173.53 9.1761 174.97 9.92421 175.918 11.4185V5.17395C175.918 4.31925 176.347 3.89481 177.207 3.89481H178.735C179.578 3.89481 179.997 4.32119 179.997 5.17395V21.9074C179.997 22.7602 179.576 23.1866 178.735 23.1866H177.207C176.347 23.1866 175.918 22.7583 175.918 21.9074V21.2659C174.968 22.7408 173.53 23.4812 171.599 23.4812C169.705 23.4812 168.144 22.8009 166.913 21.4403ZM175.01 19.0778C175.651 18.3472 175.98 17.4304 175.997 16.3296C175.98 15.2249 175.651 14.3082 175.01 13.5814C174.37 12.8507 173.54 12.4864 172.521 12.4864C171.502 12.4864 170.687 12.8565 170.074 13.595C169.46 14.3334 169.152 15.2443 169.152 16.3315C169.152 17.4324 169.46 18.351 170.074 19.0798C170.689 19.8085 171.504 20.1728 172.521 20.1728C173.538 20.1728 174.37 19.8065 175.01 19.0778Z" fill="white"/><path d="M32.2302 5.39881C30.8115 4.52861 29.1481 4.02664 27.3699 4.02664C25.8423 4.02664 24.3987 4.39682 23.1215 5.05383L19.3281 8.61992C19.1981 8.83699 19.0777 9.05793 18.9648 9.28468C19.982 8.47262 21.2669 7.9881 22.6626 7.9881C25.9704 7.9881 28.6529 10.7072 28.6529 14.0601C28.6529 16.8161 26.8403 19.1418 24.3586 19.8841V22.5819C25.3031 22.9056 26.3145 23.08 27.3661 23.08C30.5304 23.08 33.3296 21.4947 35.0332 19.0662C35.4901 17.6824 35.7387 16.2037 35.7387 14.6668C35.7425 11.1065 34.4137 7.85631 32.2302 5.39881Z" fill="url(#paint0_linear)"/><path d="M22.347 20.3492H4.56934V27.683C5.53489 28.1675 6.60751 28.464 7.74132 28.5241H23.5037V24.1421L22.347 20.3492Z" fill="url(#paint1_linear)"/><path d="M35.7334 21.0198L35.741 21.0236L35.743 21.0217L35.7334 21.0198Z" fill="#2362F1"/><path d="M37.2627 14.407C37.2627 14.4032 37.2627 14.3993 37.2608 14.3954C37.1977 11.1123 36.0046 8.10243 34.0582 5.7554C34.0563 5.75152 34.0525 5.74959 34.0505 5.74571C33.8995 5.56547 33.7465 5.3891 33.5878 5.21661C33.5783 5.20692 33.5687 5.19723 33.5611 5.18754C33.5114 5.13327 33.4617 5.08094 33.4119 5.02861C33.4005 5.01699 33.389 5.00536 33.3775 4.99373C33.2265 4.83868 33.0735 4.68557 32.9167 4.53634C32.8938 4.51502 32.8709 4.4937 32.8498 4.47238C32.8058 4.43168 32.7619 4.38904 32.716 4.35028C32.6911 4.32896 32.6663 4.30571 32.6433 4.28439C32.5554 4.20493 32.4655 4.1274 32.3756 4.04988C32.3565 4.03437 32.3393 4.01887 32.3202 4.00336C32.2743 3.9646 32.2303 3.92778 32.1844 3.88902C32.1558 3.86576 32.129 3.8425 32.1003 3.81925C32.0544 3.78242 32.0085 3.7456 31.9627 3.71071C31.934 3.68746 31.9053 3.66614 31.8766 3.64482C31.8001 3.58474 31.7217 3.52659 31.6453 3.46845C31.6089 3.44132 31.5726 3.41418 31.5363 3.38705C31.4942 3.35604 31.4541 3.32697 31.412 3.2979C31.3738 3.27077 31.3336 3.24363 31.2954 3.2165C31.2552 3.18937 31.2151 3.16223 31.1749 3.1351C31.1233 3.10021 31.0736 3.06727 31.022 3.03238C30.9684 2.99749 30.9168 2.96261 30.8633 2.92966C30.8116 2.89671 30.76 2.86377 30.7084 2.83082C30.6702 2.80756 30.6319 2.7843 30.5937 2.76105C30.544 2.73198 30.4962 2.7029 30.4484 2.67383C30.412 2.65251 30.3776 2.6312 30.3413 2.61181C30.2591 2.5653 30.1788 2.51879 30.0966 2.47421C30.0774 2.46452 30.0583 2.45483 30.0411 2.4432C29.9723 2.40638 29.9054 2.36955 29.8365 2.33273C29.804 2.31529 29.7696 2.29978 29.7371 2.2804C29.6778 2.25133 29.6205 2.22032 29.5612 2.19125C29.5287 2.17574 29.4981 2.16024 29.4656 2.14473C29.3796 2.10403 29.2954 2.06333 29.2094 2.02263C29.1865 2.01294 29.1616 2.00325 29.1387 1.99163C29.0698 1.96062 29.001 1.92961 28.9302 1.8986C28.8997 1.88503 28.8691 1.87146 28.8385 1.85984C28.7716 1.83076 28.7046 1.80363 28.6377 1.7765C28.609 1.76681 28.5823 1.75518 28.5555 1.74355C28.4656 1.70673 28.3758 1.67184 28.284 1.63889C28.2591 1.6292 28.2343 1.62145 28.2094 1.61176C28.1368 1.58463 28.066 1.55943 27.9953 1.53424C27.9647 1.52455 27.9341 1.51292 27.9035 1.50323C27.8328 1.47803 27.762 1.45477 27.6894 1.43152C27.6626 1.42183 27.6358 1.41407 27.6091 1.40632C27.5154 1.37725 27.4217 1.34818 27.328 1.32105C27.3031 1.31329 27.2783 1.30748 27.2534 1.29973C27.177 1.27841 27.0986 1.25709 27.0221 1.23577C26.9934 1.22802 26.9666 1.22026 26.9399 1.21445C26.8577 1.19313 26.7754 1.17181 26.6913 1.15243C26.6722 1.14856 26.655 1.14274 26.6378 1.13886C26.5384 1.11561 26.4408 1.09429 26.3414 1.07297C26.3127 1.06716 26.2841 1.06134 26.2554 1.05553C26.1827 1.04002 26.1082 1.02646 26.0355 1.01289C26.003 1.00707 25.9705 1.00126 25.938 0.995446C25.852 0.979941 25.7659 0.966375 25.6799 0.952808C25.6646 0.95087 25.6493 0.946994 25.6321 0.945056C25.5307 0.929551 25.4294 0.915984 25.33 0.902418C25.2994 0.898542 25.2707 0.894665 25.242 0.892727C25.1636 0.883037 25.0852 0.873346 25.0069 0.865594C24.9782 0.861718 24.9476 0.857841 24.9189 0.855903C24.8233 0.846213 24.7277 0.836523 24.6321 0.830708C24.6225 0.82877 24.6149 0.82877 24.6053 0.82877C24.5021 0.821018 24.3988 0.813265 24.2956 0.809389C24.2631 0.807451 24.2325 0.805513 24.2 0.805513C24.1235 0.801637 24.047 0.799699 23.9706 0.795823C23.9361 0.795823 23.9017 0.793884 23.8673 0.793884C23.7641 0.790008 23.6589 0.790009 23.5557 0.790009C23.4142 0.790009 23.2746 0.793885 23.1331 0.797761C23.1102 0.797761 23.0872 0.797761 23.0643 0.799699C22.9304 0.803575 22.7985 0.811327 22.6647 0.81908C22.6379 0.821018 22.6111 0.822956 22.5863 0.824894C22.4524 0.834584 22.3205 0.846213 22.1886 0.857841C22.1676 0.85978 22.1484 0.861718 22.1274 0.865594C21.9936 0.879161 21.8597 0.894665 21.7278 0.914046C21.7221 0.914046 21.7163 0.915984 21.7106 0.915984C21.5748 0.935365 21.4391 0.956684 21.3033 0.978003C21.2804 0.981879 21.2594 0.985756 21.2383 0.989632C21.1083 1.01289 20.9802 1.03615 20.854 1.06328C20.8292 1.06716 20.8043 1.07297 20.7795 1.07878C20.6494 1.10592 20.5213 1.13499 20.3932 1.166C20.3799 1.16987 20.3684 1.17181 20.3569 1.17569C20.2288 1.2067 20.1026 1.23965 19.9764 1.27453C19.963 1.27841 19.9497 1.28228 19.9363 1.28616C19.8082 1.32105 19.682 1.35981 19.5577 1.39857C19.5348 1.40632 19.5118 1.41407 19.4889 1.41989C19.3684 1.45865 19.248 1.49935 19.1275 1.54005C19.1026 1.54974 19.0759 1.55749 19.051 1.56718C18.9287 1.60982 18.8082 1.6544 18.6877 1.70091C18.6782 1.70479 18.6705 1.70866 18.661 1.7106C18.5463 1.75518 18.4315 1.80169 18.3187 1.85014C18.2939 1.85983 18.2709 1.86953 18.2461 1.87922C18.1333 1.92767 18.0205 1.97806 17.9096 2.03039C17.8809 2.04395 17.8541 2.05558 17.8254 2.06915C17.7165 2.12148 17.6075 2.17381 17.4985 2.22807C17.4698 2.24164 17.443 2.25714 17.4163 2.27071C17.3188 2.3211 17.2232 2.37149 17.1295 2.42188C17.1046 2.43545 17.0779 2.44901 17.053 2.46452C16.9555 2.51879 16.8599 2.57305 16.7643 2.62732C16.7299 2.64864 16.6935 2.66802 16.6591 2.68934C16.5597 2.74748 16.4641 2.80756 16.3666 2.86764C16.336 2.88702 16.3054 2.9064 16.2748 2.92579C16.1773 2.9878 16.0798 3.05176 15.9861 3.11572C15.9536 3.13704 15.923 3.15836 15.8924 3.17968C15.8179 3.232 15.7433 3.28433 15.6706 3.33666C15.6343 3.36186 15.598 3.38705 15.5636 3.41225C15.4813 3.47427 15.3991 3.53628 15.3169 3.5983C15.2768 3.62737 15.2385 3.65838 15.2003 3.68746C15.1181 3.75335 15.0359 3.81731 14.9555 3.8832C14.9154 3.91615 14.8772 3.9491 14.837 3.98011C14.7777 4.0305 14.7204 4.07895 14.663 4.12934C14.6018 4.18167 14.5426 4.23594 14.4833 4.28826C14.4355 4.3309 14.3877 4.37548 14.3399 4.41812C14.2844 4.46851 14.229 4.52084 14.1735 4.57316C14.1162 4.62743 14.0607 4.6817 14.0053 4.7379C13.9613 4.78054 13.9193 4.82318 13.8772 4.86775C13.8217 4.92396 13.7682 4.98016 13.7128 5.03637C13.6573 5.09451 13.6019 5.15459 13.5464 5.21467C13.5101 5.25343 13.4757 5.29026 13.4413 5.32902C13.3705 5.40848 13.2998 5.48794 13.2309 5.5674C13.2003 5.60423 13.1698 5.64105 13.1373 5.67594C13.0646 5.76121 12.9958 5.84843 12.925 5.9337C12.8983 5.96665 12.8696 6.00154 12.8428 6.03642C12.795 6.0965 12.7491 6.15658 12.7032 6.21667C12.6841 6.2438 12.6631 6.26899 12.644 6.29613C12.5675 6.39691 12.4948 6.49963 12.4203 6.60235C12.3992 6.63142 12.3801 6.65855 12.361 6.68762C12.2864 6.79615 12.2118 6.90469 12.1411 7.01322C12.1258 7.03648 12.1105 7.05973 12.0952 7.08299C11.9901 7.24579 11.8887 7.40859 11.7893 7.57527H11.7912C11.4184 8.20709 11.0933 8.87185 10.8218 9.56375C12.6822 10.1277 14.25 11.1724 15.5922 12.0658C15.9746 12.3197 16.3532 12.5717 16.7337 12.8101C17.9669 13.5795 19.1543 14.3198 20.3416 14.9458C20.615 12.8546 21.3875 10.5677 23.091 8.742C23.4276 8.37764 23.7927 8.04429 24.1866 7.74388C25.2076 7.00353 26.4581 6.56552 27.8098 6.56552C31.2514 6.56552 34.041 9.3932 34.041 12.8837C34.041 15.1648 32.8479 17.163 31.0583 18.2735C31.0583 18.2735 31.0468 18.2793 31.0296 18.291C30.978 18.322 30.9264 18.3549 30.8728 18.384C30.7065 18.4828 30.4637 18.6205 30.3069 18.6883C27.9723 19.729 25.4179 19.9364 22.7335 19.1534C20.0204 18.3627 17.5788 16.8316 15.1926 15.3451C12.99 13.9729 10.8295 12.124 8.09917 12.124C3.63277 12.124 0 15.8063 0 20.3318C0 20.8725 0.0592719 21.3977 0.156783 21.9365C0.560212 23.987 1.71888 25.7643 3.32494 26.9562V26.9581C3.33068 26.9639 3.33833 26.9678 3.34406 26.9717C3.42437 27.0298 3.50467 27.088 3.58688 27.1442C3.59644 27.15 3.606 27.1577 3.61556 27.1655C3.90045 27.3574 4.19872 27.5337 4.50655 27.6888C4.50655 27.6888 4.50655 27.6907 4.50846 27.6907C4.58112 27.7275 4.65377 27.7624 4.72643 27.7973C4.74364 27.8051 4.76084 27.8128 4.77614 27.8206C4.77996 27.8225 4.7857 27.8244 4.78952 27.8264C4.85262 27.8555 4.91571 27.8826 4.97881 27.9097C5.04573 27.9388 5.11456 27.964 5.18148 27.9911C5.20442 28.0008 5.22737 28.0086 5.25031 28.0183C5.25414 28.0202 5.25796 28.0221 5.25987 28.0221C5.28282 28.0318 5.30576 28.0415 5.33061 28.0493C5.33061 28.0493 5.33253 28.0512 5.33444 28.0512C5.38224 28.0686 5.43004 28.0842 5.47784 28.1016C5.6308 28.1539 5.78376 28.2043 5.93863 28.247C5.93863 28.247 5.94054 28.247 5.94245 28.247C6.02658 28.2702 6.10879 28.2935 6.19292 28.3129C6.30955 28.3419 6.42618 28.3671 6.54473 28.3904H6.54664C6.60782 28.402 6.67092 28.4136 6.7321 28.4253C6.7646 28.4311 6.7952 28.4369 6.8277 28.4427C6.8277 28.4427 6.8277 28.4427 6.82579 28.4427C7.2426 28.5105 7.66897 28.5454 8.10299 28.5454H8.91176C7.21201 28.5454 5.83347 27.1481 5.83347 25.4251C5.83347 23.7021 7.21201 22.3048 8.91176 22.3048C9.49492 22.3048 10.0398 22.4695 10.5044 22.7544H10.5102C11.34 23.2544 12.122 23.8785 12.9288 24.3843C16.2633 26.4736 19.8407 28.6462 23.8998 28.5338C24.3969 28.5202 24.8921 28.4776 25.3835 28.4098V28.4175C30.238 27.7469 34.2895 24.4851 36.1365 20.0585C36.1365 20.0566 36.1403 20.0527 36.1403 20.0508C36.1403 20.0488 36.1403 20.0469 36.1423 20.0469C36.6547 18.8162 36.995 17.4944 37.1365 16.1145C37.1365 16.1067 37.1384 16.099 37.1384 16.0912C37.1403 16.0816 37.1403 16.0738 37.1403 16.0641C37.1499 15.9788 37.1556 15.8936 37.1633 15.8083C37.1671 15.7753 37.169 15.7443 37.1709 15.7133C37.1766 15.6319 37.1824 15.5486 37.1862 15.4672C37.1881 15.4342 37.19 15.4013 37.1919 15.3703C37.1958 15.2869 37.1996 15.2017 37.2015 15.1183C37.2015 15.0873 37.2034 15.0563 37.2053 15.0234C37.2072 14.909 37.2091 14.7947 37.2091 14.6784C37.2665 14.5795 37.2646 14.4923 37.2627 14.407Z" fill="url(#paint2_linear)"/><path d="M37.2629 14.4069C37.2629 14.403 37.2629 14.3991 37.261 14.3953C37.1998 11.1121 36.0048 8.10229 34.0584 5.75526C34.0565 5.75138 34.0546 5.74945 34.0508 5.74557C33.8997 5.56533 33.7468 5.38896 33.5881 5.21647C33.5785 5.20678 33.5709 5.19709 33.5613 5.1874C33.5135 5.13507 33.4619 5.0808 33.4122 5.02848C33.4026 5.01685 33.3892 5.00522 33.3778 4.99359C33.2286 4.83854 33.0757 4.68543 32.9189 4.5362C32.8959 4.51488 32.873 4.49356 32.8501 4.47418C32.808 4.43348 32.7621 4.39278 32.7181 4.35208C32.6952 4.33076 32.6703 4.30944 32.6455 4.28619C32.5575 4.20673 32.4677 4.1292 32.3778 4.05362C32.3606 4.03811 32.3415 4.02261 32.3243 4.0071C32.2784 3.96834 32.2344 3.93152 32.1885 3.89275C32.1598 3.8695 32.1331 3.84624 32.1044 3.82298C32.0585 3.78616 32.0126 3.75127 31.9667 3.71445C31.938 3.69313 31.9113 3.66987 31.8807 3.64856C31.8042 3.58847 31.7277 3.53033 31.6512 3.47219C31.6149 3.44506 31.5767 3.41792 31.5423 3.39079C31.5002 3.36172 31.46 3.33265 31.418 3.30164C31.3797 3.27257 31.3396 3.24543 31.3014 3.22024C31.2612 3.1931 31.221 3.16597 31.1809 3.13884C31.1312 3.10395 31.0796 3.071 31.0279 3.03612C30.9763 3.00123 30.9228 2.96635 30.8712 2.9334C30.8195 2.90045 30.7679 2.8675 30.7163 2.83649C30.678 2.81324 30.6417 2.78998 30.6035 2.76672C30.5557 2.73765 30.506 2.70858 30.4582 2.67951C30.4218 2.65819 30.3874 2.63881 30.3511 2.61749C30.2708 2.57098 30.1905 2.52446 30.1083 2.47989C30.0911 2.4702 30.0719 2.4605 30.0528 2.44888C29.984 2.41205 29.9171 2.37523 29.8482 2.3384C29.8157 2.3229 29.7813 2.30546 29.7488 2.28801C29.6915 2.25894 29.6341 2.22987 29.5748 2.19886C29.5442 2.18336 29.5117 2.16785 29.4792 2.15235C29.3951 2.11165 29.3091 2.07095 29.223 2.03025C29.2001 2.02056 29.1752 2.01087 29.1542 1.99924C29.0854 1.96823 29.0165 1.93722 28.9458 1.90815C28.9171 1.89458 28.8846 1.88102 28.854 1.86939C28.7871 1.84032 28.7221 1.81318 28.6533 1.78411C28.6246 1.77442 28.5978 1.76279 28.571 1.75116C28.4831 1.71434 28.3932 1.68139 28.3014 1.64651C28.2766 1.63682 28.2536 1.62906 28.2269 1.61937C28.1542 1.59224 28.0835 1.56704 28.0127 1.54379C27.9821 1.53216 27.9516 1.52247 27.919 1.51278C27.8483 1.48952 27.7795 1.46433 27.7068 1.44301C27.6801 1.43332 27.6533 1.42556 27.6265 1.41587C27.5328 1.3868 27.4411 1.35773 27.3455 1.3306C27.3206 1.32478 27.2957 1.31703 27.2709 1.30928C27.1944 1.28796 27.1179 1.26664 27.0414 1.24726C27.0128 1.23951 26.986 1.23369 26.9592 1.22594C26.8789 1.20462 26.7948 1.1833 26.7126 1.16392C26.6935 1.16005 26.6763 1.15423 26.6571 1.15036C26.5596 1.1271 26.4602 1.10578 26.3627 1.08446C26.334 1.07865 26.3053 1.07283 26.2767 1.06702C26.204 1.05151 26.1313 1.03795 26.0568 1.02438C26.0243 1.01856 25.9918 1.01275 25.9593 1.00694C25.8751 0.991432 25.7891 0.977865 25.7031 0.964298C25.6878 0.96236 25.6725 0.958484 25.6572 0.956546C25.5558 0.941041 25.4545 0.927475 25.3551 0.913908C25.3264 0.910032 25.2958 0.906156 25.2671 0.90228C25.1906 0.892589 25.1123 0.882898 25.032 0.875146C25.0033 0.87127 24.9746 0.869332 24.944 0.865456C24.8484 0.855765 24.7528 0.846075 24.6553 0.84026C24.6476 0.84026 24.64 0.838323 24.6304 0.838323C24.5291 0.83057 24.4259 0.822818 24.3207 0.818942C24.2901 0.817003 24.2595 0.815065 24.227 0.815065C24.1524 0.811189 24.074 0.809251 23.9976 0.807313C23.9632 0.805375 23.9287 0.803437 23.8962 0.803437C23.793 0.799561 23.6878 0.799561 23.5846 0.799561C23.4431 0.799561 23.3035 0.803437 23.162 0.807313C23.1391 0.807313 23.1161 0.807313 23.0932 0.809251C22.9594 0.815065 22.8255 0.820879 22.6936 0.828632C22.6687 0.83057 22.642 0.832508 22.6152 0.834446C22.4833 0.844137 22.3513 0.853827 22.2175 0.867394C22.1984 0.869332 22.1774 0.87127 22.1582 0.873208C22.0244 0.886775 21.8906 0.902279 21.7586 0.92166C21.7529 0.92166 21.7472 0.923598 21.7414 0.923598C21.6057 0.942979 21.4699 0.96236 21.3361 0.985617C21.3131 0.989493 21.294 0.99337 21.2711 0.997246C21.1411 1.0205 21.0149 1.04376 20.8849 1.06896C20.8619 1.07477 20.8371 1.07865 20.8103 1.08446C20.6822 1.11159 20.5541 1.14066 20.4241 1.17167C20.4107 1.17555 20.4011 1.17749 20.3877 1.18136C20.2615 1.21237 20.1334 1.24532 20.0092 1.28021C19.9958 1.28408 19.9824 1.28602 19.9671 1.2899C19.8409 1.32478 19.7147 1.36161 19.5885 1.40231C19.5656 1.41006 19.5426 1.41781 19.5197 1.42363C19.3992 1.46239 19.2788 1.50309 19.1602 1.54379C19.1354 1.55154 19.1105 1.56123 19.0857 1.57092C18.9633 1.61356 18.8429 1.65813 18.7224 1.70465C18.7128 1.70853 18.7052 1.7124 18.6956 1.71434C18.5828 1.75892 18.4681 1.80543 18.3553 1.85388C18.3324 1.86357 18.3075 1.87326 18.2826 1.88295C18.1698 1.93141 18.0589 1.9818 17.9461 2.03219C17.9194 2.04575 17.8907 2.05932 17.8639 2.07095C17.7549 2.12328 17.646 2.17561 17.537 2.22793C17.5083 2.2415 17.4815 2.25701 17.4567 2.27057C17.3592 2.31902 17.2636 2.36941 17.168 2.42174C17.1431 2.43531 17.1182 2.44888 17.0915 2.46438C16.9959 2.51671 16.9003 2.57291 16.8028 2.62718C16.7684 2.64656 16.7339 2.66788 16.6995 2.6892C16.6001 2.74734 16.5045 2.80549 16.407 2.86557C16.3783 2.88495 16.3458 2.90433 16.3171 2.92371C16.2196 2.98573 16.1221 3.04775 16.0284 3.11364C15.9978 3.13496 15.9672 3.15628 15.9347 3.1776C15.8602 3.22993 15.7856 3.28226 15.7129 3.33458C15.6766 3.35978 15.6403 3.38497 15.6059 3.41017C15.5256 3.47219 15.4414 3.53227 15.3611 3.59623C15.321 3.6253 15.2827 3.65437 15.2464 3.68538C15.1642 3.75127 15.082 3.81523 15.0017 3.88306C14.9634 3.91601 14.9233 3.94896 14.885 3.97997C14.8258 4.02842 14.7684 4.07881 14.7111 4.1292C14.6499 4.18153 14.5906 4.2358 14.5313 4.28813C14.4835 4.33076 14.4357 4.37534 14.3898 4.41798C14.3344 4.46837 14.277 4.5207 14.2254 4.57302C14.1681 4.62729 14.1126 4.68156 14.0572 4.73776C14.0132 4.7804 13.9692 4.82304 13.9291 4.86568C13.8736 4.92188 13.8201 4.97809 13.7646 5.03429C13.7092 5.09243 13.6537 5.15251 13.6002 5.21066C13.5639 5.24748 13.5294 5.28624 13.495 5.325C13.4243 5.40447 13.3555 5.48393 13.2847 5.56339C13.256 5.60021 13.2235 5.6351 13.191 5.67192C13.1203 5.7572 13.0515 5.84441 12.9807 5.93163C12.9539 5.96457 12.9253 5.99946 12.9004 6.03435C12.8545 6.09249 12.8086 6.15257 12.7608 6.21265C12.7417 6.23978 12.7226 6.26498 12.7016 6.29211C12.627 6.39483 12.5524 6.49561 12.4779 6.59833C12.4587 6.62546 12.4396 6.65454 12.4186 6.68361C12.344 6.79214 12.2714 6.90067 12.1987 7.00921C12.1834 7.03246 12.1681 7.05572 12.1528 7.07898C12.0477 7.23984 11.9463 7.40458 11.8469 7.56931L11.8507 7.57125C11.4779 8.20307 11.1548 8.86784 10.8813 9.5578C12.7398 10.1218 14.3095 11.1664 15.6518 12.0599C16.0341 12.3138 16.4127 12.5657 16.7951 12.8041C18.0283 13.5735 19.2157 14.3139 20.403 14.9418C20.6764 12.8506 21.4489 10.5637 23.1525 8.73798C23.4871 8.37362 23.8542 8.04027 24.2461 7.73987C25.2671 6.99952 26.5176 6.56151 27.8712 6.56151C31.3128 6.56151 34.1024 9.39112 34.1024 12.8797C34.1024 15.1608 32.9093 17.159 31.1197 18.2695C31.1197 18.2695 31.1006 18.2811 31.0681 18.3005C31.0394 18.318 31.0107 18.3354 30.982 18.3509C30.8157 18.4498 30.5404 18.6087 30.3683 18.6823C29.3588 19.132 28.3282 19.4207 27.2651 19.5467L34.2076 23.3667C35.0106 22.3628 35.6894 21.2522 36.1922 20.0448C36.1941 20.0429 36.196 20.039 36.196 20.0371C36.196 20.0351 36.196 20.0332 36.1979 20.0332C36.7104 18.8025 37.0507 17.4807 37.1922 16.0989C37.1941 16.0911 37.1941 16.0834 37.196 16.0756C37.1979 16.0678 37.1979 16.0582 37.1979 16.0485C37.2075 15.9632 37.2132 15.8779 37.2209 15.7926C37.2247 15.7597 37.2266 15.7287 37.2285 15.6977C37.2342 15.6163 37.24 15.5329 37.2438 15.4515C37.2476 15.4186 37.2476 15.3856 37.2495 15.3527C37.2534 15.2694 37.2572 15.186 37.2591 15.1007C37.2591 15.0697 37.2629 15.0387 37.2629 15.0058C37.2667 14.8914 37.2667 14.7771 37.2667 14.6608C37.2667 14.5794 37.2648 14.4922 37.2629 14.4069Z" fill="url(#paint3_radial)"/><path d="M129.589 32.879V33.5205C129.589 33.6852 129.509 33.7647 129.348 33.7647H129.142C128.99 33.7647 128.91 33.6833 128.91 33.5205V27.4717C128.91 27.307 128.99 27.2275 129.142 27.2275H129.348C129.509 27.2275 129.589 27.3089 129.589 27.4717V30.1385C129.971 29.4796 130.553 29.154 131.329 29.154C131.998 29.154 132.533 29.3807 132.944 29.8323C133.356 30.2858 133.56 30.8459 133.56 31.5146C133.56 32.1735 133.356 32.7375 132.944 33.1871C132.533 33.6387 131.998 33.8655 131.329 33.8655C130.553 33.8635 129.973 33.5379 129.589 32.879ZM132.436 32.7511C132.73 32.4177 132.874 32.0107 132.874 31.5126C132.874 31.0145 132.73 30.6075 132.436 30.2742C132.141 29.9408 131.749 29.7683 131.26 29.7683C130.769 29.7683 130.367 29.9311 130.055 30.2567C129.744 30.5823 129.583 30.999 129.574 31.5126C129.583 32.0204 129.744 32.4352 130.055 32.7608C130.367 33.0864 130.769 33.2492 131.26 33.2492C131.748 33.2492 132.141 33.0864 132.436 32.7511Z" fill="white"/><path d="M134.992 35.79C134.804 35.79 134.743 35.6989 134.804 35.509L135.51 33.691L133.726 29.5416C133.663 29.3691 133.736 29.2528 133.913 29.2528H134.191C134.324 29.2528 134.412 29.3148 134.458 29.4427L135.885 32.9042L137.221 29.4505C137.265 29.3148 137.355 29.2528 137.498 29.2528H137.783C137.961 29.2528 138.043 29.3613 137.971 29.5416L135.437 35.6001C135.393 35.728 135.294 35.79 135.16 35.79H134.992Z" fill="white"/><path d="M140.608 33.1716C140.191 32.7104 139.982 32.1328 139.982 31.4409C139.982 30.7529 140.191 30.1753 140.608 29.7121C141.024 29.2489 141.552 29.0164 142.197 29.0164C142.85 29.0164 143.338 29.2703 143.659 29.7761V27.6616C143.659 27.3729 143.804 27.2275 144.097 27.2275H144.615C144.9 27.2275 145.043 27.3729 145.043 27.6616V33.3286C145.043 33.6193 144.9 33.7628 144.615 33.7628H144.097C143.806 33.7628 143.659 33.6193 143.659 33.3286V33.1116C143.338 33.6135 142.85 33.8616 142.197 33.8616C141.552 33.8635 141.023 33.6329 140.608 33.1716ZM143.349 32.3731C143.565 32.127 143.678 31.815 143.684 31.4429C143.678 31.0688 143.565 30.7568 143.349 30.5106C143.133 30.2645 142.852 30.1405 142.506 30.1405C142.162 30.1405 141.885 30.2664 141.676 30.5145C141.468 30.7645 141.365 31.0746 141.365 31.4429C141.365 31.815 141.47 32.127 141.676 32.3731C141.885 32.6193 142.162 32.7433 142.506 32.7433C142.852 32.7433 143.133 32.6193 143.349 32.3731Z" fill="white"/><path d="M146.221 33.1775C145.739 32.7181 145.498 32.1464 145.498 31.4584C145.498 30.7839 145.731 30.2083 146.194 29.7315C146.659 29.2567 147.265 29.0164 148.014 29.0164C148.691 29.0164 149.259 29.216 149.718 29.6172C150.175 30.0184 150.419 30.5785 150.448 31.2936C150.454 31.4216 150.418 31.5165 150.337 31.5785C150.257 31.6406 150.148 31.6735 150.012 31.6735H146.819C146.808 31.9623 146.934 32.2162 147.198 32.4332C147.462 32.6503 147.806 32.7588 148.228 32.7588C148.58 32.7588 148.919 32.6658 149.246 32.4778C149.488 32.3402 149.691 32.3712 149.852 32.5689L149.949 32.6968C150.146 32.9371 150.119 33.1523 149.869 33.3383C149.395 33.6891 148.817 33.8616 148.138 33.8616C147.343 33.8636 146.705 33.6349 146.221 33.1775ZM149.158 30.8983C149.098 30.6095 148.963 30.4002 148.752 30.2703C148.54 30.1405 148.303 30.0765 148.033 30.0765C147.76 30.0765 147.513 30.1424 147.293 30.2742C147.074 30.4079 146.926 30.6134 146.856 30.8983H149.158Z" fill="white"/><path d="M151.794 33.412L150.465 29.623C150.406 29.4738 150.408 29.3517 150.475 29.2567C150.54 29.1637 150.653 29.1172 150.813 29.1172H151.402C151.659 29.1172 151.819 29.2412 151.884 29.4873L152.607 31.8751L153.293 29.6152C153.366 29.3691 153.525 29.2451 153.775 29.2451H153.909C154.159 29.2451 154.32 29.3691 154.391 29.6152L155.087 31.8751L155.8 29.4873C155.865 29.2412 156.026 29.1172 156.282 29.1172H156.871C157.031 29.1172 157.144 29.1637 157.209 29.2567C157.274 29.3517 157.28 29.4738 157.226 29.623L155.89 33.412C155.811 33.6465 155.649 33.7647 155.398 33.7647H155.016C154.767 33.7647 154.603 33.6426 154.525 33.4023L153.848 31.1677L153.161 33.4023C153.091 33.6426 152.926 33.7647 152.67 33.7647H152.288C152.035 33.7647 151.871 33.6465 151.794 33.412Z" fill="white"/><path d="M157.909 33.1717C157.492 32.7104 157.284 32.1328 157.284 31.4409C157.284 30.7529 157.492 30.1754 157.909 29.7122C158.326 29.249 158.852 29.0164 159.488 29.0164C160.148 29.0164 160.639 29.2703 160.959 29.7761V29.5513C160.959 29.2625 161.102 29.1172 161.387 29.1172H161.915C162.199 29.1172 162.343 29.2625 162.343 29.5513V33.3286C162.343 33.6194 162.199 33.7628 161.915 33.7628H161.387C161.102 33.7628 160.959 33.6194 160.959 33.3286V33.1116C160.637 33.6135 160.148 33.8616 159.488 33.8616C158.85 33.8636 158.324 33.6329 157.909 33.1717ZM160.651 32.3732C160.867 32.127 160.976 31.815 160.976 31.4429C160.976 31.0688 160.867 30.7568 160.651 30.5107C160.433 30.2645 160.154 30.1405 159.808 30.1405C159.458 30.1405 159.178 30.2665 158.974 30.5145C158.767 30.7645 158.666 31.0746 158.666 31.4429C158.666 31.815 158.769 32.127 158.974 32.3732C159.178 32.6193 159.458 32.7433 159.808 32.7433C160.154 32.7433 160.433 32.6193 160.651 32.3732Z" fill="white"/><path d="M164.102 33.412L162.773 29.623C162.714 29.4738 162.716 29.3517 162.783 29.2567C162.848 29.1637 162.96 29.1172 163.121 29.1172H163.71C163.966 29.1172 164.127 29.2412 164.192 29.4873L164.915 31.8751L165.601 29.6152C165.674 29.3691 165.832 29.2451 166.083 29.2451H166.217C166.465 29.2451 166.628 29.3691 166.698 29.6152L167.394 31.8751L168.108 29.4873C168.173 29.2412 168.333 29.1172 168.589 29.1172H169.178C169.339 29.1172 169.452 29.1637 169.517 29.2567C169.582 29.3517 169.587 29.4738 169.534 29.623L168.197 33.412C168.119 33.6465 167.956 33.7647 167.706 33.7647H167.324C167.075 33.7647 166.911 33.6426 166.832 33.4023L166.155 31.1677L165.469 33.4023C165.398 33.6426 165.234 33.7647 164.978 33.7647H164.595C164.343 33.7647 164.178 33.6465 164.102 33.412Z" fill="white"/><path d="M170.287 33.1775C169.805 32.7181 169.564 32.1464 169.564 31.4584C169.564 30.7839 169.798 30.2083 170.26 29.7315C170.725 29.2567 171.331 29.0164 172.081 29.0164C172.757 29.0164 173.325 29.216 173.784 29.6172C174.241 30.0184 174.486 30.5785 174.515 31.2936C174.52 31.4216 174.484 31.5165 174.404 31.5785C174.323 31.6406 174.214 31.6735 174.079 31.6735H170.886C170.874 31.9623 171 32.2162 171.264 32.4332C171.528 32.6503 171.872 32.7588 172.295 32.7588C172.647 32.7588 172.985 32.6658 173.312 32.4778C173.555 32.3402 173.757 32.3712 173.918 32.5689L174.016 32.6968C174.212 32.9371 174.186 33.1523 173.935 33.3383C173.461 33.6891 172.884 33.8616 172.205 33.8616C171.408 33.8636 170.769 33.6349 170.287 33.1775ZM173.222 30.8983C173.163 30.6095 173.027 30.4002 172.817 30.2703C172.605 30.1405 172.367 30.0765 172.098 30.0765C171.824 30.0765 171.578 30.1424 171.358 30.2742C171.138 30.4079 170.991 30.6134 170.92 30.8983H173.222Z" fill="white"/><path d="M176.323 33.1135V33.3305C176.323 33.6213 176.178 33.7647 175.885 33.7647H175.369C175.084 33.7647 174.941 33.6213 174.941 33.3305V27.6636C174.941 27.3748 175.084 27.2294 175.369 27.2294H175.885C176.176 27.2294 176.323 27.3748 176.323 27.6636V29.778C176.645 29.2722 177.132 29.0183 177.786 29.0183C178.428 29.0183 178.958 29.2509 179.375 29.7141C179.792 30.1773 180 30.7548 180 31.4428C180 32.1347 179.792 32.7123 179.375 33.1736C178.958 33.6348 178.43 33.8655 177.786 33.8655C177.132 33.8635 176.645 33.6154 176.323 33.1135ZM178.304 32.3731C178.513 32.127 178.616 31.815 178.616 31.4428C178.616 31.0746 178.513 30.7645 178.304 30.5145C178.096 30.2664 177.818 30.1404 177.474 30.1404C177.124 30.1404 176.841 30.2625 176.627 30.5067C176.413 30.7509 176.304 31.063 176.298 31.4428C176.304 31.8208 176.415 32.1328 176.627 32.377C176.841 32.6212 177.124 32.7433 177.474 32.7433C177.818 32.7433 178.096 32.6193 178.304 32.3731Z" fill="white"/><defs><linearGradient id="paint0_linear" x1="27.3541" y1="14.1115" x2="27.3541" y2="7.61785" gradientUnits="userSpaceOnUse"><stop stop-color="#0E7DD9"/><stop offset="1" stop-color="#00458C"/></linearGradient><linearGradient id="paint1_linear" x1="15.2547" y1="26.4515" x2="11.5557" y2="21.5723" gradientUnits="userSpaceOnUse"><stop stop-color="#0E7DD9"/><stop offset="1" stop-color="#00458C"/></linearGradient><linearGradient id="paint2_linear" x1="1.31357" y1="23.8584" x2="20.7246" y2="16.0614" gradientUnits="userSpaceOnUse"><stop offset="0.0706" stop-color="#4DB3FF"/><stop offset="0.3017" stop-color="#9CE3FF"/><stop offset="0.8405" stop-color="#4DB3FF"/></linearGradient><radialGradient id="paint3_radial" cx="0" cy="0" r="1" gradientUnits="userSpaceOnUse" gradientTransform="translate(21.6175 10.8059) scale(12.2064 12.3731)"><stop stop-color="#9CE3FF"/><stop offset="0.8662" stop-color="#4DB3FF"/></radialGradient></defs></svg>