<svg width="644" height="725" viewBox="0 0 644 725" fill="none"  xmlns="http://www.w3.org/2000/svg">
<path d="M498.38 68.0506C457.519 43.2911 409.671 29.1646 358.481 29.1646C314.43 29.1646 272.962 39.6456 236.202 58.3291L127.139 159.494C123.342 165.57 120 171.949 116.658 178.329C145.975 155.24 182.886 141.57 223.139 141.57C318.38 141.57 395.544 218.734 395.544 313.975C395.544 392.203 343.443 458.278 272.051 479.24V555.797C299.24 564.911 328.405 569.924 358.633 569.924C449.62 569.924 530.278 524.962 579.19 456C592.405 416.81 599.544 374.734 599.544 331.139C599.392 230.127 561.114 137.924 498.38 68.0506Z" fill="#0067B4"/>
<path d="M214.025 492.456H-297.57V700.709C-269.772 714.531 -238.937 722.886 -206.278 724.557H247.291V600.152L214.025 492.456Z" fill="#0067B4"/>
<path d="M643.139 323.696C643.139 323.544 643.139 323.544 643.139 323.392C641.316 230.126 606.987 144.759 550.937 78.0758C550.937 77.9239 550.785 77.9239 550.785 77.772C546.532 72.6074 541.975 67.5948 537.418 62.734C537.114 62.4302 536.962 62.1264 536.658 61.8226C535.291 60.3036 533.772 58.7846 532.405 57.2657C532.101 56.9619 531.797 56.6581 531.494 56.2024C527.24 51.7973 522.835 47.3922 518.278 43.291C517.671 42.6834 516.911 42.0758 516.304 41.4682C515.089 40.253 513.721 39.1897 512.506 37.9745C511.747 37.3669 511.139 36.7593 510.38 36.1517C507.797 33.8733 505.215 31.7467 502.633 29.4682C502.177 29.0125 501.57 28.5568 501.114 28.1011C499.747 27.0378 498.532 25.9745 497.165 24.9112C496.405 24.3036 495.494 23.5441 494.734 22.9365C493.367 21.8733 492.152 20.81 490.785 19.8986C490.025 19.291 489.114 18.6834 488.354 18.0758C486.228 16.4049 483.949 14.734 481.671 13.0631C480.608 12.3036 479.544 11.5441 478.481 10.7846C477.266 9.87325 476.051 9.11377 474.835 8.20238C473.772 7.44288 472.557 6.68339 471.494 5.9239C470.278 5.1644 469.215 4.40491 468 3.64542C466.481 2.73402 465.114 1.67073 463.595 0.759335C462.076 -0.303955 460.557 -1.21535 459.038 -2.12674C457.519 -3.03814 456 -3.94952 454.633 -4.86091C453.57 -5.46851 452.506 -6.22801 451.291 -6.8356C449.924 -7.5951 448.557 -8.50648 447.038 -9.26598C445.975 -9.87357 445.063 -10.4812 444 -11.0888C441.722 -12.4559 439.291 -13.671 437.013 -15.0381C436.557 -15.3419 435.949 -15.6457 435.342 -15.9495C433.367 -17.0128 431.392 -18.0761 429.418 -18.9875C428.506 -19.4432 427.443 -19.8989 426.532 -20.5065C424.861 -21.4179 423.19 -22.1774 421.519 -22.9369C420.608 -23.3926 419.696 -23.8483 418.785 -24.304C416.354 -25.5191 413.924 -26.5824 411.494 -27.7976C410.886 -28.1014 410.127 -28.4052 409.519 -28.709C407.544 -29.6204 405.57 -30.5318 403.595 -31.2913C402.683 -31.5951 401.772 -32.0508 401.013 -32.3546C399.038 -33.1141 397.215 -34.0255 395.24 -34.785C394.481 -35.0888 393.721 -35.3926 392.81 -35.6964C390.228 -36.7596 387.646 -37.671 385.063 -38.7343C384.304 -39.0381 383.696 -39.19 382.937 -39.4938C380.81 -40.2533 378.835 -41.0128 376.709 -41.6204C375.797 -41.9242 374.886 -42.228 374.127 -42.5318C372.152 -43.2913 370.025 -43.8989 368.051 -44.5065C367.291 -44.8103 366.532 -44.9622 365.772 -45.266C363.038 -46.0255 360.304 -46.9369 357.722 -47.6964C356.962 -47.8483 356.354 -48.1521 355.595 -48.304C353.468 -48.9115 351.19 -49.5191 348.911 -50.1267C348.152 -50.2786 347.392 -50.5824 346.481 -50.7343C344.051 -51.3419 341.772 -51.9495 339.342 -52.5571C338.886 -52.709 338.278 -52.8609 337.823 -52.8609C334.937 -53.4685 332.203 -54.0761 329.316 -54.6837C328.557 -54.8356 327.646 -54.9875 326.886 -55.1394C324.759 -55.5951 322.633 -55.8989 320.506 -56.3546C319.595 -56.5065 318.684 -56.6584 317.772 -56.8103C315.342 -57.266 312.911 -57.7217 310.329 -58.0255C309.873 -58.0255 309.418 -58.1774 308.962 -58.1774C306.076 -58.6331 303.19 -59.0888 300.304 -59.3926C299.392 -59.5445 298.633 -59.5445 297.722 -59.6964C295.443 -60.0002 293.165 -60.3039 291.038 -60.4558C290.279 -60.6077 289.367 -60.6077 288.456 -60.7596C285.721 -61.0634 282.987 -61.2153 280.253 -61.5191C279.949 -61.5191 279.797 -61.5191 279.494 -61.5191C276.608 -61.671 273.57 -61.9748 270.532 -62.1267C269.62 -62.1267 268.709 -62.2786 267.797 -62.2786C265.671 -62.4305 263.392 -62.4305 261.266 -62.5824C260.203 -62.5824 259.291 -62.5824 258.38 -62.7343C255.342 -62.8862 252.456 -62.8862 249.418 -62.8862C245.316 -62.8862 241.367 -62.7343 237.266 -62.7343C236.658 -62.7343 235.899 -62.7343 235.291 -62.7343C231.494 -62.5824 227.696 -62.4305 223.747 -62.1267C222.987 -62.1267 222.228 -61.9748 221.468 -61.9748C217.671 -61.671 213.873 -61.3672 210.076 -61.0634C209.468 -61.0634 208.861 -60.9115 208.405 -60.9115C204.608 -60.4558 200.658 -60.0002 196.861 -59.5445C196.709 -59.5445 196.557 -59.5445 196.405 -59.5445C192.456 -58.9369 188.658 -58.4812 184.709 -57.7217C184.101 -57.5698 183.494 -57.5698 182.886 -57.4179C179.24 -56.8103 175.443 -56.0508 171.797 -55.2913C171.038 -55.1394 170.43 -54.9875 169.671 -54.8356C166.025 -54.0761 162.228 -53.3166 158.582 -52.4052C158.278 -52.2533 157.823 -52.2533 157.519 -52.1014C153.873 -51.19 150.228 -50.2786 146.582 -49.3672C146.127 -49.2153 145.823 -49.2153 145.367 -49.0634C141.722 -48.0002 138.076 -46.9369 134.43 -45.8736C133.823 -45.7217 133.063 -45.4179 132.456 -45.266C128.962 -44.2027 125.468 -42.9875 122.127 -41.9242C121.367 -41.6204 120.608 -41.4685 120 -41.1647C116.506 -39.9495 113.013 -38.7343 109.519 -37.3672C109.215 -37.2153 109.063 -37.2153 108.76 -37.0634C105.418 -35.8483 102.228 -34.4812 98.886 -33.1141C98.1266 -32.8103 97.519 -32.5065 96.7595 -32.2027C93.5696 -30.8356 90.2278 -29.4685 87.038 -27.9495C86.2785 -27.6457 85.3671 -27.19 84.6076 -26.8862C81.4177 -25.3672 78.3797 -24.0002 75.1899 -22.3293C74.4304 -21.8736 73.6709 -21.5698 72.7595 -21.1141C70.0253 -19.747 67.2911 -18.228 64.5569 -16.8609C63.7975 -16.4052 63.038 -16.1014 62.4304 -15.6457C59.6962 -14.1267 56.962 -12.6077 54.076 -10.9369C53.0127 -10.3293 52.1013 -9.72168 51.038 -9.11408C48.1519 -7.4432 45.4177 -5.7723 42.6835 -4.10142C41.7722 -3.49382 40.8607 -3.03813 40.1013 -2.43053C37.3671 -0.60775 34.481 1.06313 31.7468 2.88592C30.8354 3.49352 29.924 4.1011 29.0127 4.7087C26.8861 6.22768 24.7595 7.59478 22.6329 9.11376C21.5696 9.87326 20.5063 10.6328 19.5949 11.2403C17.1646 12.9112 14.8861 14.734 12.4557 16.5568C11.3924 17.4682 10.1772 18.2277 9.11392 19.1391C6.68353 20.9619 4.40506 22.7847 2.12656 24.7593C1.06326 25.6707 -0.151886 26.5821 -1.21518 27.4935C-2.88605 28.8606 -4.55698 30.3796 -6.22787 31.7467C-7.89874 33.2657 -9.72153 34.7847 -11.3924 36.3036C-12.7595 37.5188 -14.1266 38.734 -15.4937 39.9492C-17.1645 41.4682 -18.6835 42.8353 -20.2025 44.3543C-21.8734 45.8733 -23.3924 47.3922 -25.0633 49.0631C-26.2785 50.2783 -27.4937 51.4935 -28.7089 52.7087C-30.2278 54.2277 -31.8987 55.8986 -33.4177 57.5695C-35.0886 59.2403 -36.6076 60.9112 -38.1266 62.5821C-39.1899 63.6454 -40.1013 64.7087 -41.1646 65.772C-43.1393 68.0505 -45.2658 70.3289 -47.2405 72.4555C-48.1519 73.5188 -49.0633 74.5821 -49.9747 75.4935C-52.1013 77.9239 -54.076 80.3543 -56.0506 82.7846C-56.8101 83.696 -57.5696 84.7593 -58.3291 85.6707C-59.6962 87.3416 -61.0633 89.0125 -62.2785 90.8353C-62.8861 91.5948 -63.3418 92.3543 -63.9494 93.1138C-66.076 95.9998 -68.2025 98.8859 -70.3291 101.772C-70.9367 102.531 -71.3924 103.443 -72 104.202C-74.1266 107.24 -76.2532 110.278 -78.3798 113.468C-78.8354 114.076 -79.2911 114.835 -79.7468 115.443C-82.7848 120 -85.6709 124.709 -88.5569 129.418C-99.3418 147.342 -108.608 166.177 -116.506 185.772C-63.038 201.873 -17.924 231.493 20.8102 256.861C31.7469 264 42.6836 271.291 53.6203 277.974C89.1646 299.848 123.342 320.81 157.367 338.582C165.266 279.19 187.443 214.329 236.506 162.531C246.228 152.202 256.709 142.785 267.949 134.278C297.266 113.316 333.266 100.861 372.152 100.861C471.19 100.861 551.544 181.215 551.544 280.253C551.544 344.962 517.215 401.772 465.721 433.215C465.721 433.215 465.418 433.367 464.81 433.671C463.291 434.582 461.772 435.493 460.253 436.253C455.392 438.987 448.405 442.936 444 444.911C376.861 474.38 303.342 480.304 226.025 458.126C147.949 435.645 77.6202 392.202 8.96201 349.974C-54.3798 310.936 -116.658 258.531 -195.19 258.531C-323.696 258.531 -428.203 363.038 -428.203 491.544C-428.203 506.886 -426.532 521.772 -423.646 537.114C-412.101 595.291 -378.684 645.721 -332.506 679.595C-332.354 679.747 -332.051 679.898 -331.899 680.05C-329.62 681.721 -327.342 683.392 -324.911 684.911C-324.608 685.063 -324.304 685.367 -324 685.519C-315.797 690.987 -307.291 696 -298.329 700.405C-296.203 701.468 -294.076 702.379 -292.101 703.443C-291.646 703.595 -291.19 703.898 -290.734 704.05C-290.582 704.05 -290.43 704.202 -290.43 704.202C-288.608 704.962 -286.785 705.873 -284.962 706.633C-282.987 707.392 -281.013 708.152 -279.19 708.911C-278.582 709.215 -277.823 709.367 -277.215 709.671C-277.063 709.671 -277.063 709.823 -276.911 709.823C-276.304 710.126 -275.544 710.278 -274.937 710.582C-274.937 710.582 -274.937 710.582 -274.785 710.582C-273.418 711.038 -272.051 711.493 -270.684 711.949C-266.278 713.468 -261.873 714.835 -257.468 716.05H-257.316C-254.886 716.658 -252.608 717.417 -250.177 717.873C-246.835 718.633 -243.494 719.392 -240 720.152C-240 720.152 -240 720.152 -239.848 720.152C-238.025 720.455 -236.354 720.759 -234.532 721.063C-233.62 721.215 -232.709 721.367 -231.797 721.519C-219.797 723.493 -207.494 724.405 -195.038 724.405H-171.797C-220.709 724.405 -260.354 684.759 -260.354 635.848C-260.354 586.936 -220.709 547.291 -171.797 547.291C-154.937 547.291 -139.291 552 -125.924 560.05H-125.772C-101.924 574.177 -79.4431 591.949 -56.2025 606.38C39.7975 665.62 142.633 727.443 259.443 724.101C273.722 723.797 288 722.582 302.127 720.607V720.759C441.873 701.772 558.38 609.114 611.544 483.493C611.544 483.493 611.696 483.342 611.696 483.19V483.038C626.43 448.101 636.304 410.582 640.253 371.392C640.253 371.24 640.253 370.936 640.405 370.785C640.405 370.481 640.405 370.329 640.405 370.025C640.709 367.595 640.861 365.164 641.013 362.734C641.165 361.823 641.165 360.911 641.165 360C641.316 357.721 641.468 355.291 641.62 353.012C641.62 352.101 641.772 351.19 641.772 350.278C641.924 347.848 641.924 345.569 642.076 343.139C642.076 342.228 642.228 341.316 642.228 340.405C642.228 337.215 642.38 333.873 642.38 330.683C643.291 328.709 643.139 326.278 643.139 323.696Z" fill="#4DB3FF"/>
<path d="M643.139 323.696C643.139 323.544 643.139 323.544 643.139 323.392C641.316 230.126 606.987 144.759 550.937 78.0759C550.937 77.924 550.785 77.924 550.785 77.7721C546.38 72.6075 541.975 67.5949 537.418 62.7341C537.114 62.4303 536.962 62.1265 536.658 61.8227C535.291 60.3037 533.772 58.7847 532.405 57.2657C532.101 56.9619 531.797 56.6582 531.494 56.2025C527.24 51.7974 522.835 47.3923 518.278 43.2911C517.671 42.6835 516.911 42.0759 516.304 41.4683C515.089 40.2531 513.721 39.1898 512.506 37.9746C511.899 37.367 511.139 36.7594 510.38 36.1518C507.797 33.8734 505.215 31.7468 502.633 29.4683C502.177 29.0126 501.57 28.5569 501.114 28.1012C499.747 27.0379 498.532 25.9746 497.165 24.9113C496.405 24.3037 495.494 23.5442 494.734 22.9366C493.367 21.8733 492.152 20.8101 490.785 19.8987C490.025 19.2911 489.114 18.6835 488.354 18.0759C486.076 16.405 483.949 14.7341 481.671 13.0632C480.608 12.3037 479.544 11.5442 478.481 10.7847C477.266 9.87334 476.051 9.11385 474.987 8.20246C473.924 7.44297 472.709 6.68347 471.646 5.92398C470.43 5.16449 469.367 4.40499 468.152 3.6455C466.633 2.73411 465.266 1.67081 463.747 0.759422C462.228 -0.303871 460.709 -1.21526 459.19 -2.12666C457.671 -3.03805 456.152 -3.94944 454.785 -4.86083C453.721 -5.46842 452.658 -6.22792 451.443 -6.83551C450.076 -7.59501 448.709 -8.5064 447.19 -9.26589C446.127 -9.87349 445.215 -10.4811 444.152 -11.0887C441.873 -12.4558 439.595 -13.671 437.165 -15.038C436.709 -15.3418 436.101 -15.6456 435.494 -15.9494C433.519 -17.0127 431.544 -18.076 429.57 -19.1393C428.658 -19.595 427.595 -20.0507 426.684 -20.6583C425.013 -21.5697 423.342 -22.3292 421.671 -23.2406C420.76 -23.6963 419.848 -24.152 418.937 -24.6077C416.506 -25.8229 414.076 -26.8861 411.646 -28.1013C411.038 -28.4051 410.278 -28.7089 409.671 -29.0127C407.696 -29.9241 405.722 -30.8355 403.747 -31.595C402.835 -32.0507 402.076 -32.3545 401.165 -32.6583C399.19 -33.4178 397.367 -34.3292 395.392 -35.0887C394.633 -35.3925 393.873 -35.6963 392.962 -36.0001C390.38 -37.0634 387.797 -37.9748 385.215 -38.8861C384.456 -39.1899 383.848 -39.3418 383.089 -39.6456C380.962 -40.4051 378.987 -41.1646 376.861 -41.7722C375.949 -42.076 375.038 -42.3798 374.127 -42.6836C372.152 -43.2912 370.025 -44.0507 368.051 -44.6583C367.291 -44.9621 366.532 -45.114 365.772 -45.4178C363.038 -46.1773 360.456 -47.0887 357.722 -47.8482C356.962 -48.0001 356.203 -48.3039 355.595 -48.4558C353.316 -49.0634 351.19 -49.671 348.911 -50.2785C348.152 -50.4304 347.392 -50.7342 346.481 -50.8861C344.203 -51.4937 341.772 -52.1013 339.342 -52.7089C338.734 -52.8608 338.278 -53.0127 337.823 -53.0127C335.089 -53.6203 332.203 -54.2279 329.316 -54.8355C328.557 -54.9874 327.646 -55.1393 326.886 -55.2912C324.759 -55.7469 322.633 -56.0507 320.506 -56.5064C319.595 -56.6583 318.684 -56.8102 317.772 -56.9621C315.342 -57.4178 312.911 -57.7216 310.329 -58.1773C309.873 -58.1773 309.418 -58.3292 308.962 -58.4811C306.076 -58.9368 303.19 -59.2406 300.304 -59.6963C299.392 -59.8482 298.633 -59.8482 297.722 -60.0001C295.443 -60.3039 293.316 -60.4558 291.038 -60.7596C290.278 -60.9115 289.367 -60.9115 288.456 -61.0634C285.721 -61.3672 282.987 -61.5191 280.101 -61.8229C279.949 -61.8229 279.646 -61.8229 279.342 -61.8229C276.456 -62.1267 273.418 -62.2785 270.38 -62.4304C269.468 -62.4304 268.557 -62.5823 267.646 -62.5823C265.519 -62.7342 263.24 -62.7342 261.114 -62.8861C260.202 -62.8861 259.139 -63.038 258.228 -63.038C255.19 -63.1899 252.304 -63.1899 249.266 -63.1899C245.165 -63.1899 241.215 -63.038 237.114 -63.038C236.506 -63.038 235.747 -63.038 235.139 -63.038C231.342 -62.8861 227.392 -62.7342 223.595 -62.4304C222.835 -62.4304 222.076 -62.2786 221.316 -62.2786C217.519 -61.9748 213.722 -61.671 209.924 -61.3672C209.316 -61.3672 208.709 -61.2153 208.253 -61.2153C204.456 -60.7596 200.506 -60.4558 196.709 -59.8482C196.557 -59.8482 196.405 -59.8482 196.253 -59.8482C192.304 -59.3925 188.506 -58.7849 184.557 -58.0254C183.949 -57.8735 183.342 -57.8735 182.734 -57.7216C178.937 -57.114 175.291 -56.3545 171.646 -55.595C171.038 -55.4431 170.278 -55.2912 169.519 -55.1393C165.873 -54.3798 162.076 -53.6203 158.43 -52.7089C157.975 -52.557 157.823 -52.557 157.367 -52.4051C153.721 -51.4937 150.076 -50.5824 146.43 -49.671C145.975 -49.5191 145.671 -49.5191 145.215 -49.3672C141.57 -48.3039 137.924 -47.2406 134.278 -46.1773C133.671 -46.0254 132.911 -45.7216 132.304 -45.5697C128.81 -44.5064 125.316 -43.2912 121.975 -42.076C121.215 -41.7722 120.456 -41.6203 119.848 -41.3165C116.354 -40.1013 112.861 -38.8861 109.367 -37.5191C109.063 -37.3672 108.911 -37.3672 108.608 -37.2153C105.266 -36.0001 102.076 -34.633 98.7342 -33.2659C98.1266 -32.9621 97.3671 -32.6583 96.6076 -32.3545C93.4177 -30.9874 90.0759 -29.6203 86.8861 -28.1013C86.1266 -27.6456 85.3671 -27.3418 84.4557 -27.038C81.2658 -25.5191 78.2278 -24.152 75.0379 -22.4811C74.2785 -22.0254 73.519 -21.7216 72.7595 -21.2659C70.0253 -19.8988 67.1392 -18.3798 64.405 -17.0127C63.6455 -16.557 62.886 -16.2532 62.1266 -15.7975C59.3924 -14.2786 56.6582 -12.7596 53.7721 -11.2406C52.8607 -10.633 51.7974 -10.0254 50.7341 -9.41779C47.8481 -7.7469 45.1139 -6.07602 42.3797 -4.40514C41.4683 -3.79754 40.7089 -3.34185 39.7975 -2.73425C37.0633 -0.911469 34.1772 0.759418 31.443 2.5822C30.5316 3.1898 29.6202 3.7974 28.7088 4.40499C26.5822 5.92398 24.4557 7.29107 22.3291 8.81006C21.2658 9.56955 20.2025 10.329 19.2911 10.9366C17.0127 12.6075 14.5823 14.4303 12.3038 16.2531C11.0886 17.1645 10.0253 17.924 8.962 18.8354C6.53162 20.6582 4.25317 22.4809 1.97469 24.4556C0.9114 25.367 -0.303802 26.2784 -1.3671 27.1898C-3.03799 28.5569 -4.70885 30.0759 -6.37974 31.443C-8.05062 32.9619 -9.87344 34.4809 -11.5443 35.9999C-12.9114 37.2151 -14.2785 38.4303 -15.6456 39.6455C-17.3165 41.1645 -18.8354 42.5316 -20.3544 44.0506C-22.0253 45.5695 -23.5443 47.0885 -25.2152 48.7594C-26.4304 49.9746 -27.7975 51.1898 -28.8608 52.405C-30.3798 53.924 -32.0507 55.5949 -33.5696 57.2657C-35.2405 58.9366 -36.7595 60.6075 -38.2785 62.2784C-39.3418 63.3417 -40.2532 64.405 -41.3164 65.4683C-43.2911 67.7468 -45.4177 70.0252 -47.3924 72.3037C-48.3038 73.367 -49.0633 74.4303 -50.1266 75.3417C-52.1013 77.7721 -54.2279 80.2025 -56.2025 82.6328C-56.962 83.5442 -57.7215 84.6075 -58.481 85.5189C-59.8481 87.1898 -61.0633 88.8607 -62.4304 90.5316C-63.038 91.2911 -63.4937 92.0506 -64.1013 92.8101C-66.2278 95.6961 -68.3544 98.5822 -70.481 101.468C-71.0886 102.228 -71.5443 103.139 -72.1519 103.899C-74.2785 106.937 -76.4051 109.975 -78.5316 113.164C-78.9873 113.772 -79.4431 114.532 -79.8988 115.139C-82.9367 119.696 -85.8228 124.405 -88.7089 129.114H-88.557C-99.3418 147.038 -108.608 165.873 -116.354 185.468C-62.8861 201.57 -17.7721 231.19 20.962 256.557C31.8987 263.848 42.8354 270.987 53.7721 277.671C89.3164 299.544 123.494 320.506 157.519 338.278C165.418 278.886 187.595 214.025 236.658 162.228C246.228 151.899 256.861 142.481 268.101 133.823C297.57 112.861 333.418 100.405 372.456 100.405C471.494 100.405 551.696 180.759 551.696 279.797C551.696 344.506 517.367 401.316 465.873 432.759C465.873 432.759 465.266 433.063 464.354 433.671C463.595 434.126 462.684 434.582 461.924 435.038C457.215 437.772 449.165 442.329 444.304 444.456C415.291 457.215 385.519 465.418 354.987 469.063L554.734 577.519C577.823 548.962 597.418 517.519 611.848 483.19C611.848 483.19 612 483.038 612 482.886V482.734C626.734 447.797 636.608 410.278 640.557 371.089C640.557 370.937 640.557 370.633 640.709 370.481C640.861 370.329 640.709 370.025 640.709 369.721C641.013 367.291 641.164 364.861 641.316 362.43C641.468 361.519 641.468 360.608 641.468 359.696C641.62 357.418 641.772 354.987 641.924 352.709C642.076 351.797 642.076 350.886 642.076 349.975C642.228 347.544 642.228 345.266 642.38 342.835C642.38 341.924 642.532 341.013 642.532 340.101C642.684 336.911 642.684 333.57 642.684 330.38C643.291 328.709 643.291 326.278 643.139 323.696Z" fill="#4DB3FF"/>
</svg>
